<svg width="235" height="284" viewBox="0 0 235 284" fill="none" xmlns="http://www.w3.org/2000/svg">
<circle cx="54" cy="176" r="4" fill="#DC2625"/>
<circle cx="176" cy="104" r="4" fill="#DC2625"/>
<circle cx="54" cy="258" r="4" fill="#DC2625"/>
<circle cx="55" cy="187" r="4" fill="#DC2625"/>
<circle cx="177" cy="115" r="4" fill="#DC2625"/>
<circle cx="55" cy="269" r="4" fill="#DC2625"/>
<circle cx="56" cy="198" r="4" fill="#DC2625"/>
<circle cx="56" cy="127" r="4" fill="#DC2625"/>
<circle cx="56" cy="280" r="4" fill="#DC2625"/>
<circle cx="57" cy="210" r="4" fill="#DC2625"/>
<circle cx="58" cy="222" r="4" fill="#DC2625"/>
<circle cx="54" cy="70" r="4" fill="#DC2625"/>
<circle cx="54" cy="60" r="4" fill="#DC2625"/>
<circle cx="54" cy="48" r="4" fill="#DC2625"/>
<circle cx="54" cy="37" r="4" fill="#DC2625"/>
<circle cx="54" cy="26" r="4" fill="#DC2625"/>
<circle cx="54" cy="15" r="4" fill="#DC2625"/>
<circle cx="54" cy="4" r="4" fill="#DC2625"/>
<circle cx="176" cy="69" r="4" fill="#DC2625"/>
<circle cx="116" cy="69" r="4" fill="#DC2625"/>
<circle cx="116" cy="105" r="4" fill="#DC2625"/>
<circle cx="58" cy="234" r="4" fill="#DC2625"/>
<circle cx="54" cy="82" r="4" fill="#DC2625"/>
<circle cx="176" cy="81" r="4" fill="#DC2625"/>
<circle cx="116" cy="81" r="4" fill="#DC2625"/>
<circle cx="116" cy="117" r="4" fill="#DC2625"/>
<circle cx="58" cy="246" r="4" fill="#DC2625"/>
<circle cx="54" cy="165" r="4" fill="#DC2625"/>
<circle cx="176" cy="93" r="4" fill="#DC2625"/>
<circle cx="116" cy="93" r="4" fill="#DC2625"/>
<circle cx="116" cy="129" r="4" fill="#DC2625"/>
<circle cx="115" cy="141" r="4" fill="#DC2625"/>
<circle cx="64" cy="176" r="4" fill="#DC2625"/>
<circle cx="64" cy="105" r="4" fill="#DC2625"/>
<circle cx="186" cy="104" r="4" fill="#DC2625"/>
<circle cx="64" cy="258" r="4" fill="#DC2625"/>
<circle cx="65" cy="187" r="4" fill="#DC2625"/>
<circle cx="65" cy="116" r="4" fill="#DC2625"/>
<circle cx="187" cy="115" r="4" fill="#DC2625"/>
<circle cx="65" cy="269" r="4" fill="#DC2625"/>
<circle cx="66" cy="198" r="4" fill="#DC2625"/>
<circle cx="66" cy="127" r="4" fill="#DC2625"/>
<circle cx="66" cy="280" r="4" fill="#DC2625"/>
<circle cx="67" cy="210" r="4" fill="#DC2625"/>
<circle cx="68" cy="222" r="4" fill="#DC2625"/>
<circle cx="64" cy="141" r="4" fill="#DC2625"/>
<circle cx="64" cy="70" r="4" fill="#DC2625"/>
<circle cx="64" cy="60" r="4" fill="#DC2625"/>
<circle cx="64" cy="48" r="4" fill="#DC2625"/>
<circle cx="4" cy="141" r="4" fill="#DC2625"/>
<circle cx="126" cy="69" r="4" fill="#DC2625"/>
<circle cx="4" cy="106" r="4" fill="#DC2625"/>
<circle cx="126" cy="105" r="4" fill="#DC2625"/>
<circle cx="68" cy="234" r="4" fill="#DC2625"/>
<circle cx="64" cy="82" r="4" fill="#DC2625"/>
<circle cx="4" cy="153" r="4" fill="#DC2625"/>
<circle cx="126" cy="81" r="4" fill="#DC2625"/>
<circle cx="126" cy="117" r="4" fill="#DC2625"/>
<circle cx="68" cy="246" r="4" fill="#DC2625"/>
<circle cx="64" cy="165" r="4" fill="#DC2625"/>
<circle cx="64" cy="94" r="4" fill="#DC2625"/>
<circle cx="4" cy="165" r="4" fill="#DC2625"/>
<circle cx="4" cy="94" r="4" fill="#DC2625"/>
<circle cx="126" cy="93" r="4" fill="#DC2625"/>
<circle cx="126" cy="129" r="4" fill="#DC2625"/>
<circle cx="125" cy="141" r="4" fill="#DC2625"/>
<circle cx="74" cy="176" r="4" fill="#DC2625"/>
<circle cx="74" cy="105" r="4" fill="#DC2625"/>
<circle cx="196" cy="104" r="4" fill="#DC2625"/>
<circle cx="74" cy="258" r="4" fill="#DC2625"/>
<circle cx="75" cy="187" r="4" fill="#DC2625"/>
<circle cx="75" cy="116" r="4" fill="#DC2625"/>
<circle cx="75" cy="269" r="4" fill="#DC2625"/>
<circle cx="76" cy="198" r="4" fill="#DC2625"/>
<circle cx="76" cy="127" r="4" fill="#DC2625"/>
<circle cx="76" cy="280" r="4" fill="#DC2625"/>
<circle cx="77" cy="210" r="4" fill="#DC2625"/>
<circle cx="78" cy="222" r="4" fill="#DC2625"/>
<circle cx="74" cy="141" r="4" fill="#DC2625"/>
<circle cx="74" cy="70" r="4" fill="#DC2625"/>
<circle cx="74" cy="60" r="4" fill="#DC2625"/>
<circle cx="14" cy="141" r="4" fill="#DC2625"/>
<circle cx="136" cy="69" r="4" fill="#DC2625"/>
<circle cx="14" cy="106" r="4" fill="#DC2625"/>
<circle cx="136" cy="105" r="4" fill="#DC2625"/>
<circle cx="78" cy="234" r="4" fill="#DC2625"/>
<circle cx="74" cy="153" r="4" fill="#DC2625"/>
<circle cx="74" cy="82" r="4" fill="#DC2625"/>
<circle cx="14" cy="153" r="4" fill="#DC2625"/>
<circle cx="136" cy="81" r="4" fill="#DC2625"/>
<circle cx="136" cy="117" r="4" fill="#DC2625"/>
<circle cx="78" cy="246" r="4" fill="#DC2625"/>
<circle cx="74" cy="165" r="4" fill="#DC2625"/>
<circle cx="74" cy="94" r="4" fill="#DC2625"/>
<circle cx="196" cy="93" r="4" fill="#DC2625"/>
<circle cx="14" cy="165" r="4" fill="#DC2625"/>
<circle cx="136" cy="93" r="4" fill="#DC2625"/>
<circle cx="136" cy="129" r="4" fill="#DC2625"/>
<circle cx="84" cy="176" r="4" fill="#DC2625"/>
<circle cx="84" cy="105" r="4" fill="#DC2625"/>
<circle cx="206" cy="104" r="4" fill="#DC2625"/>
<circle cx="84" cy="258" r="4" fill="#DC2625"/>
<circle cx="85" cy="187" r="4" fill="#DC2625"/>
<circle cx="85" cy="116" r="4" fill="#DC2625"/>
<circle cx="85" cy="269" r="4" fill="#DC2625"/>
<circle cx="86" cy="198" r="4" fill="#DC2625"/>
<circle cx="86" cy="127" r="4" fill="#DC2625"/>
<circle cx="86" cy="280" r="4" fill="#DC2625"/>
<circle cx="87" cy="210" r="4" fill="#DC2625"/>
<circle cx="88" cy="222" r="4" fill="#DC2625"/>
<circle cx="84" cy="141" r="4" fill="#DC2625"/>
<circle cx="84" cy="70" r="4" fill="#DC2625"/>
<circle cx="206" cy="69" r="4" fill="#DC2625"/>
<circle cx="212" cy="47" r="4" fill="#DC2625"/>
<circle cx="146" cy="69" r="4" fill="#DC2625"/>
<circle cx="24" cy="106" r="4" fill="#DC2625"/>
<circle cx="146" cy="105" r="4" fill="#DC2625"/>
<circle cx="88" cy="234" r="4" fill="#DC2625"/>
<circle cx="84" cy="153" r="4" fill="#DC2625"/>
<circle cx="84" cy="82" r="4" fill="#DC2625"/>
<circle cx="206" cy="81" r="4" fill="#DC2625"/>
<circle cx="212" cy="59" r="4" fill="#DC2625"/>
<circle cx="221" cy="35" r="4" fill="#DC2625"/>
<circle cx="146" cy="81" r="4" fill="#DC2625"/>
<circle cx="24" cy="118" r="4" fill="#DC2625"/>
<circle cx="146" cy="117" r="4" fill="#DC2625"/>
<circle cx="88" cy="246" r="4" fill="#DC2625"/>
<circle cx="84" cy="165" r="4" fill="#DC2625"/>
<circle cx="84" cy="94" r="4" fill="#DC2625"/>
<circle cx="206" cy="93" r="4" fill="#DC2625"/>
<circle cx="24" cy="165" r="4" fill="#DC2625"/>
<circle cx="146" cy="93" r="4" fill="#DC2625"/>
<circle cx="146" cy="129" r="4" fill="#DC2625"/>
<circle cx="94" cy="176" r="4" fill="#DC2625"/>
<circle cx="94" cy="105" r="4" fill="#DC2625"/>
<circle cx="94" cy="258" r="4" fill="#DC2625"/>
<circle cx="95" cy="187" r="4" fill="#DC2625"/>
<circle cx="95" cy="116" r="4" fill="#DC2625"/>
<circle cx="95" cy="269" r="4" fill="#DC2625"/>
<circle cx="96" cy="198" r="4" fill="#DC2625"/>
<circle cx="96" cy="127" r="4" fill="#DC2625"/>
<circle cx="96" cy="280" r="4" fill="#DC2625"/>
<circle cx="97" cy="210" r="4" fill="#DC2625"/>
<circle cx="98" cy="222" r="4" fill="#DC2625"/>
<circle cx="94" cy="141" r="4" fill="#DC2625"/>
<circle cx="94" cy="70" r="4" fill="#DC2625"/>
<circle cx="216" cy="69" r="4" fill="#DC2625"/>
<circle cx="222" cy="47" r="4" fill="#DC2625"/>
<circle cx="231" cy="23" r="4" fill="#DC2625"/>
<circle cx="34" cy="70" r="4" fill="#DC2625"/>
<circle cx="34" cy="60" r="4" fill="#DC2625"/>
<circle cx="34" cy="48" r="4" fill="#DC2625"/>
<circle cx="34" cy="37" r="4" fill="#DC2625"/>
<circle cx="34" cy="26" r="4" fill="#DC2625"/>
<circle cx="34" cy="15" r="4" fill="#DC2625"/>
<circle cx="34" cy="4" r="4" fill="#DC2625"/>
<circle cx="156" cy="69" r="4" fill="#DC2625"/>
<circle cx="156" cy="105" r="4" fill="#DC2625"/>
<circle cx="98" cy="234" r="4" fill="#DC2625"/>
<circle cx="94" cy="153" r="4" fill="#DC2625"/>
<circle cx="94" cy="82" r="4" fill="#DC2625"/>
<circle cx="216" cy="81" r="4" fill="#DC2625"/>
<circle cx="222" cy="59" r="4" fill="#DC2625"/>
<circle cx="231" cy="35" r="4" fill="#DC2625"/>
<circle cx="156" cy="81" r="4" fill="#DC2625"/>
<circle cx="34" cy="118" r="4" fill="#DC2625"/>
<circle cx="156" cy="117" r="4" fill="#DC2625"/>
<circle cx="98" cy="246" r="4" fill="#DC2625"/>
<circle cx="94" cy="165" r="4" fill="#DC2625"/>
<circle cx="94" cy="94" r="4" fill="#DC2625"/>
<circle cx="34" cy="165" r="4" fill="#DC2625"/>
<circle cx="156" cy="93" r="4" fill="#DC2625"/>
<circle cx="104" cy="176" r="4" fill="#DC2625"/>
<circle cx="104" cy="105" r="4" fill="#DC2625"/>
<circle cx="104" cy="258" r="4" fill="#DC2625"/>
<circle cx="105" cy="187" r="4" fill="#DC2625"/>
<circle cx="105" cy="116" r="4" fill="#DC2625"/>
<circle cx="105" cy="269" r="4" fill="#DC2625"/>
<circle cx="106" cy="198" r="4" fill="#DC2625"/>
<circle cx="106" cy="127" r="4" fill="#DC2625"/>
<circle cx="107" cy="210" r="4" fill="#DC2625"/>
<circle cx="108" cy="222" r="4" fill="#DC2625"/>
<circle cx="104" cy="141" r="4" fill="#DC2625"/>
<circle cx="104" cy="70" r="4" fill="#DC2625"/>
<circle cx="44" cy="70" r="4" fill="#DC2625"/>
<circle cx="44" cy="60" r="4" fill="#DC2625"/>
<circle cx="44" cy="48" r="4" fill="#DC2625"/>
<circle cx="44" cy="37" r="4" fill="#DC2625"/>
<circle cx="44" cy="26" r="4" fill="#DC2625"/>
<circle cx="44" cy="15" r="4" fill="#DC2625"/>
<circle cx="44" cy="4" r="4" fill="#DC2625"/>
<circle cx="166" cy="69" r="4" fill="#DC2625"/>
<circle cx="166" cy="105" r="4" fill="#DC2625"/>
<circle cx="108" cy="234" r="4" fill="#DC2625"/>
<circle cx="104" cy="153" r="4" fill="#DC2625"/>
<circle cx="104" cy="82" r="4" fill="#DC2625"/>
<circle cx="44" cy="82" r="4" fill="#DC2625"/>
<circle cx="166" cy="81" r="4" fill="#DC2625"/>
<circle cx="44" cy="118" r="4" fill="#DC2625"/>
<circle cx="166" cy="117" r="4" fill="#DC2625"/>
<circle cx="108" cy="246" r="4" fill="#DC2625"/>
<circle cx="104" cy="165" r="4" fill="#DC2625"/>
<circle cx="104" cy="94" r="4" fill="#DC2625"/>
<circle cx="44" cy="165" r="4" fill="#DC2625"/>
<circle cx="166" cy="93" r="4" fill="#DC2625"/>
<circle cx="44" cy="130" r="4" fill="#DC2625"/>
<circle cx="54" cy="176" r="4" fill="#DC2625"/>
<circle cx="176" cy="104" r="4" fill="#DC2625"/>
<circle cx="54" cy="258" r="4" fill="#DC2625"/>
<circle cx="55" cy="187" r="4" fill="#DC2625"/>
<circle cx="177" cy="115" r="4" fill="#DC2625"/>
<circle cx="55" cy="269" r="4" fill="#DC2625"/>
<circle cx="56" cy="198" r="4" fill="#DC2625"/>
<circle cx="56" cy="127" r="4" fill="#DC2625"/>
<circle cx="56" cy="280" r="4" fill="#DC2625"/>
<circle cx="57" cy="210" r="4" fill="#DC2625"/>
<circle cx="58" cy="222" r="4" fill="#DC2625"/>
<circle cx="54" cy="70" r="4" fill="#DC2625"/>
<circle cx="54" cy="60" r="4" fill="#DC2625"/>
<circle cx="54" cy="48" r="4" fill="#DC2625"/>
<circle cx="54" cy="37" r="4" fill="#DC2625"/>
<circle cx="54" cy="26" r="4" fill="#DC2625"/>
<circle cx="54" cy="15" r="4" fill="#DC2625"/>
<circle cx="54" cy="4" r="4" fill="#DC2625"/>
<circle cx="176" cy="69" r="4" fill="#DC2625"/>
<circle cx="175" cy="58" r="4" fill="#DC2625"/>
<circle cx="172" cy="48" r="4" fill="#DC2625"/>
<circle cx="170" cy="38" r="4" fill="#DC2625"/>
<circle cx="116" cy="69" r="4" fill="#DC2625"/>
<circle cx="116" cy="105" r="4" fill="#DC2625"/>
<circle cx="58" cy="234" r="4" fill="#DC2625"/>
<circle cx="54" cy="82" r="4" fill="#DC2625"/>
<circle cx="176" cy="81" r="4" fill="#DC2625"/>
<circle cx="116" cy="81" r="4" fill="#DC2625"/>
<circle cx="116" cy="117" r="4" fill="#DC2625"/>
<circle cx="58" cy="246" r="4" fill="#DC2625"/>
<circle cx="54" cy="165" r="4" fill="#DC2625"/>
<circle cx="176" cy="93" r="4" fill="#DC2625"/>
<circle cx="116" cy="93" r="4" fill="#DC2625"/>
<circle cx="116" cy="129" r="4" fill="#DC2625"/>
<circle cx="115" cy="141" r="4" fill="#DC2625"/>
<circle cx="64" cy="176" r="4" fill="#DC2625"/>
<circle cx="64" cy="105" r="4" fill="#DC2625"/>
<circle cx="186" cy="104" r="4" fill="#DC2625"/>
<circle cx="64" cy="258" r="4" fill="#DC2625"/>
<circle cx="65" cy="187" r="4" fill="#DC2625"/>
<circle cx="65" cy="116" r="4" fill="#DC2625"/>
<circle cx="187" cy="115" r="4" fill="#DC2625"/>
<circle cx="65" cy="269" r="4" fill="#DC2625"/>
<circle cx="66" cy="198" r="4" fill="#DC2625"/>
<circle cx="66" cy="127" r="4" fill="#DC2625"/>
<circle cx="66" cy="280" r="4" fill="#DC2625"/>
<circle cx="67" cy="210" r="4" fill="#DC2625"/>
<circle cx="68" cy="222" r="4" fill="#DC2625"/>
<circle cx="64" cy="141" r="4" fill="#DC2625"/>
<circle cx="64" cy="70" r="4" fill="#DC2625"/>
<circle cx="64" cy="60" r="4" fill="#DC2625"/>
<circle cx="64" cy="48" r="4" fill="#DC2625"/>
<circle cx="4" cy="141" r="4" fill="#DC2625"/>
<circle cx="126" cy="69" r="4" fill="#DC2625"/>
<circle cx="4" cy="106" r="4" fill="#DC2625"/>
<circle cx="126" cy="105" r="4" fill="#DC2625"/>
<circle cx="68" cy="234" r="4" fill="#DC2625"/>
<circle cx="64" cy="82" r="4" fill="#DC2625"/>
<circle cx="4" cy="153" r="4" fill="#DC2625"/>
<circle cx="126" cy="81" r="4" fill="#DC2625"/>
<circle cx="126" cy="117" r="4" fill="#DC2625"/>
<circle cx="68" cy="246" r="4" fill="#DC2625"/>
<circle cx="64" cy="165" r="4" fill="#DC2625"/>
<circle cx="64" cy="94" r="4" fill="#DC2625"/>
<circle cx="4" cy="165" r="4" fill="#DC2625"/>
<circle cx="4" cy="94" r="4" fill="#DC2625"/>
<circle cx="126" cy="93" r="4" fill="#DC2625"/>
<circle cx="126" cy="129" r="4" fill="#DC2625"/>
<circle cx="125" cy="141" r="4" fill="#DC2625"/>
<circle cx="74" cy="176" r="4" fill="#DC2625"/>
<circle cx="74" cy="105" r="4" fill="#DC2625"/>
<circle cx="196" cy="104" r="4" fill="#DC2625"/>
<circle cx="74" cy="258" r="4" fill="#DC2625"/>
<circle cx="75" cy="187" r="4" fill="#DC2625"/>
<circle cx="75" cy="116" r="4" fill="#DC2625"/>
<circle cx="75" cy="269" r="4" fill="#DC2625"/>
<circle cx="76" cy="198" r="4" fill="#DC2625"/>
<circle cx="76" cy="127" r="4" fill="#DC2625"/>
<circle cx="76" cy="280" r="4" fill="#DC2625"/>
<circle cx="77" cy="210" r="4" fill="#DC2625"/>
<circle cx="78" cy="222" r="4" fill="#DC2625"/>
<circle cx="74" cy="141" r="4" fill="#DC2625"/>
<circle cx="74" cy="70" r="4" fill="#DC2625"/>
<circle cx="74" cy="60" r="4" fill="#DC2625"/>
<circle cx="14" cy="141" r="4" fill="#DC2625"/>
<circle cx="136" cy="69" r="4" fill="#DC2625"/>
<circle cx="14" cy="106" r="4" fill="#DC2625"/>
<circle cx="136" cy="105" r="4" fill="#DC2625"/>
<circle cx="78" cy="234" r="4" fill="#DC2625"/>
<circle cx="74" cy="153" r="4" fill="#DC2625"/>
<circle cx="74" cy="82" r="4" fill="#DC2625"/>
<circle cx="14" cy="153" r="4" fill="#DC2625"/>
<circle cx="136" cy="81" r="4" fill="#DC2625"/>
<circle cx="136" cy="117" r="4" fill="#DC2625"/>
<circle cx="78" cy="246" r="4" fill="#DC2625"/>
<circle cx="74" cy="165" r="4" fill="#DC2625"/>
<circle cx="74" cy="94" r="4" fill="#DC2625"/>
<circle cx="14" cy="165" r="4" fill="#DC2625"/>
<circle cx="136" cy="93" r="4" fill="#DC2625"/>
<circle cx="136" cy="129" r="4" fill="#DC2625"/>
<circle cx="84" cy="176" r="4" fill="#DC2625"/>
<circle cx="84" cy="105" r="4" fill="#DC2625"/>
<circle cx="206" cy="104" r="4" fill="#DC2625"/>
<circle cx="84" cy="258" r="4" fill="#DC2625"/>
<circle cx="85" cy="187" r="4" fill="#DC2625"/>
<circle cx="85" cy="116" r="4" fill="#DC2625"/>
<circle cx="85" cy="269" r="4" fill="#DC2625"/>
<circle cx="86" cy="198" r="4" fill="#DC2625"/>
<circle cx="86" cy="127" r="4" fill="#DC2625"/>
<circle cx="86" cy="280" r="4" fill="#DC2625"/>
<circle cx="87" cy="210" r="4" fill="#DC2625"/>
<circle cx="88" cy="222" r="4" fill="#DC2625"/>
<circle cx="84" cy="141" r="4" fill="#DC2625"/>
<circle cx="84" cy="70" r="4" fill="#DC2625"/>
<circle cx="206" cy="69" r="4" fill="#DC2625"/>
<circle cx="212" cy="47" r="4" fill="#DC2625"/>
<circle cx="146" cy="69" r="4" fill="#DC2625"/>
<circle cx="142" cy="59" r="4" fill="#DC2625"/>
<circle cx="24" cy="106" r="4" fill="#DC2625"/>
<circle cx="146" cy="105" r="4" fill="#DC2625"/>
<circle cx="88" cy="234" r="4" fill="#DC2625"/>
<circle cx="84" cy="153" r="4" fill="#DC2625"/>
<circle cx="84" cy="82" r="4" fill="#DC2625"/>
<circle cx="206" cy="81" r="4" fill="#DC2625"/>
<circle cx="212" cy="59" r="4" fill="#DC2625"/>
<circle cx="221" cy="35" r="4" fill="#DC2625"/>
<circle cx="146" cy="81" r="4" fill="#DC2625"/>
<circle cx="24" cy="118" r="4" fill="#DC2625"/>
<circle cx="146" cy="117" r="4" fill="#DC2625"/>
<circle cx="88" cy="246" r="4" fill="#DC2625"/>
<circle cx="84" cy="165" r="4" fill="#DC2625"/>
<circle cx="84" cy="94" r="4" fill="#DC2625"/>
<circle cx="206" cy="93" r="4" fill="#DC2625"/>
<circle cx="24" cy="165" r="4" fill="#DC2625"/>
<circle cx="146" cy="93" r="4" fill="#DC2625"/>
<circle cx="146" cy="129" r="4" fill="#DC2625"/>
<circle cx="94" cy="176" r="4" fill="#DC2625"/>
<circle cx="94" cy="105" r="4" fill="#DC2625"/>
<circle cx="94" cy="258" r="4" fill="#DC2625"/>
<circle cx="95" cy="187" r="4" fill="#DC2625"/>
<circle cx="95" cy="116" r="4" fill="#DC2625"/>
<circle cx="95" cy="269" r="4" fill="#DC2625"/>
<circle cx="96" cy="198" r="4" fill="#DC2625"/>
<circle cx="96" cy="127" r="4" fill="#DC2625"/>
<circle cx="97" cy="210" r="4" fill="#DC2625"/>
<circle cx="98" cy="222" r="4" fill="#DC2625"/>
<circle cx="94" cy="141" r="4" fill="#DC2625"/>
<circle cx="94" cy="70" r="4" fill="#DC2625"/>
<circle cx="216" cy="69" r="4" fill="#DC2625"/>
<circle cx="222" cy="47" r="4" fill="#DC2625"/>
<circle cx="231" cy="23" r="4" fill="#DC2625"/>
<circle cx="34" cy="70" r="4" fill="#DC2625"/>
<circle cx="34" cy="60" r="4" fill="#DC2625"/>
<circle cx="34" cy="48" r="4" fill="#DC2625"/>
<circle cx="34" cy="37" r="4" fill="#DC2625"/>
<circle cx="34" cy="26" r="4" fill="#DC2625"/>
<circle cx="34" cy="15" r="4" fill="#DC2625"/>
<circle cx="34" cy="4" r="4" fill="#DC2625"/>
<circle cx="156" cy="69" r="4" fill="#DC2625"/>
<circle cx="152" cy="59" r="4" fill="#DC2625"/>
<circle cx="147" cy="50" r="4" fill="#DC2625"/>
<circle cx="156" cy="105" r="4" fill="#DC2625"/>
<circle cx="98" cy="234" r="4" fill="#DC2625"/>
<circle cx="94" cy="153" r="4" fill="#DC2625"/>
<circle cx="94" cy="82" r="4" fill="#DC2625"/>
<circle cx="216" cy="81" r="4" fill="#DC2625"/>
<circle cx="222" cy="59" r="4" fill="#DC2625"/>
<circle cx="231" cy="35" r="4" fill="#DC2625"/>
<circle cx="156" cy="81" r="4" fill="#DC2625"/>
<circle cx="34" cy="118" r="4" fill="#DC2625"/>
<circle cx="156" cy="117" r="4" fill="#DC2625"/>
<circle cx="98" cy="246" r="4" fill="#DC2625"/>
<circle cx="94" cy="165" r="4" fill="#DC2625"/>
<circle cx="94" cy="94" r="4" fill="#DC2625"/>
<circle cx="34" cy="165" r="4" fill="#DC2625"/>
<circle cx="156" cy="93" r="4" fill="#DC2625"/>
<circle cx="104" cy="176" r="4" fill="#DC2625"/>
<circle cx="104" cy="105" r="4" fill="#DC2625"/>
<circle cx="104" cy="258" r="4" fill="#DC2625"/>
<circle cx="105" cy="187" r="4" fill="#DC2625"/>
<circle cx="105" cy="116" r="4" fill="#DC2625"/>
<circle cx="105" cy="269" r="4" fill="#DC2625"/>
<circle cx="106" cy="198" r="4" fill="#DC2625"/>
<circle cx="106" cy="127" r="4" fill="#DC2625"/>
<circle cx="107" cy="210" r="4" fill="#DC2625"/>
<circle cx="108" cy="222" r="4" fill="#DC2625"/>
<circle cx="104" cy="141" r="4" fill="#DC2625"/>
<circle cx="104" cy="70" r="4" fill="#DC2625"/>
<circle cx="44" cy="70" r="4" fill="#DC2625"/>
<circle cx="44" cy="60" r="4" fill="#DC2625"/>
<circle cx="44" cy="48" r="4" fill="#DC2625"/>
<circle cx="44" cy="37" r="4" fill="#DC2625"/>
<circle cx="44" cy="26" r="4" fill="#DC2625"/>
<circle cx="44" cy="15" r="4" fill="#DC2625"/>
<circle cx="44" cy="4" r="4" fill="#DC2625"/>
<circle cx="166" cy="69" r="4" fill="#DC2625"/>
<circle cx="161" cy="58" r="4" fill="#DC2625"/>
<circle cx="157" cy="47" r="4" fill="#DC2625"/>
<circle cx="166" cy="105" r="4" fill="#DC2625"/>
<circle cx="108" cy="234" r="4" fill="#DC2625"/>
<circle cx="104" cy="153" r="4" fill="#DC2625"/>
<circle cx="104" cy="82" r="4" fill="#DC2625"/>
<circle cx="44" cy="82" r="4" fill="#DC2625"/>
<circle cx="166" cy="81" r="4" fill="#DC2625"/>
<circle cx="44" cy="118" r="4" fill="#DC2625"/>
<circle cx="166" cy="117" r="4" fill="#DC2625"/>
<circle cx="108" cy="246" r="4" fill="#DC2625"/>
<circle cx="104" cy="165" r="4" fill="#DC2625"/>
<circle cx="104" cy="94" r="4" fill="#DC2625"/>
<circle cx="44" cy="165" r="4" fill="#DC2625"/>
<circle cx="166" cy="93" r="4" fill="#DC2625"/>
<circle cx="44" cy="130" r="4" fill="#DC2625"/>
</svg>
